<svg xmlns="http://www.w3.org/2000/svg" width="155.344" height="54.667" viewBox="0 0 155.344 54.667">
  <path fill="none" d="M0-20.703h91.427V54.91H0z"/>
  <path d="M83.988 46.744c0 .633.012 1.155.035 1.564.023.41.035.79.035 1.143 0 .19-.012.358-.035.51-.023.154-.035.3-.035.44.047.094.07.17.07.23v.157c0 .188-.06.387-.176.598-.118.21-.27.404-.457.58-.188.176-.4.322-.633.44-.234.117-.47.175-.703.175-.306 0-.605-.035-.897-.105-.293-.07-.545-.164-.756-.28-2.062-.657-4.166-1.126-6.31-1.407s-4.308-.422-6.487-.422c-2.86 0-5.69.182-8.49.545-2.8.365-5.48.99-8.033 1.882-.516.188-1.067.346-1.652.475-.586.13-1.137.246-1.652.352-.516.104-.967.18-1.354.228-.388.047-.64.07-.757.07-.164.023-.445.012-.844-.035-.4-.047-.85-.118-1.355-.21-.504-.094-1.043-.217-1.617-.37-.575-.152-1.12-.322-1.635-.51-2.484-.89-5.14-1.517-7.963-1.88-2.825-.364-5.678-.546-8.56-.546-2.18 0-4.343.14-6.487.422s-4.25.75-6.31 1.405c-.26.118-.523.21-.792.28-.27.07-.556.106-.86.106-.14 0-.33-.04-.562-.122-.234-.082-.457-.205-.668-.37-.21-.163-.393-.35-.545-.56-.153-.212-.23-.458-.23-.74 0-.14.006-.292.02-.456.01-.164.017-.387.017-.668 0-.375.012-.732.035-1.072.023-.34.035-.697.035-1.072v-.773c-.023-.21-.06-.504-.105-.88-.047-.374-.1-.75-.158-1.124-.06-.375-.106-.72-.142-1.037s-.053-.533-.053-.65c.023-.984.135-2.308.334-3.973.198-1.664.444-3.486.737-5.467.293-1.98.615-4.03.967-6.152l1.002-6.047c.316-1.91.603-3.633.86-5.168.26-1.536.435-2.702.528-3.5l.07-.28c.093-.96.188-1.957.28-2.988.094-1.03.317-1.992.67-2.883.163-.446.42-.827.772-1.144s.738-.592 1.16-.826c.422-.234.867-.434 1.336-.598.47-.164.902-.328 1.3-.492 1.196-.445 2.415-.873 3.657-1.283 1.24-.41 2.495-.773 3.76-1.09S26.9.6 28.176.41c1.277-.187 2.55-.28 3.814-.28 1.24 0 2.49.105 3.743.316 1.253.21 2.473.545 3.656 1.002 1.182.457 2.307 1.06 3.374 1.81 1.066.75 2.044 1.666 2.936 2.743.867-1.077 1.84-1.99 2.918-2.74 1.078-.75 2.203-1.36 3.375-1.83 1.172-.468 2.385-.802 3.64-1 1.252-.2 2.5-.3 3.743-.3 2.554.047 5.098.404 7.63 1.072s5.003 1.447 7.417 2.338c.398.164.826.33 1.283.492.457.164.896.364 1.318.598.422.234.81.51 1.16.826s.62.698.81 1.143c.327.89.544 1.85.65 2.882.104 1.032.204 2.027.298 2.988l.07.28c.093.798.27 1.964.527 3.5.257 1.534.55 3.257.878 5.167.328 1.91.668 3.926 1.02 6.047.352 2.122.673 4.172.967 6.152.293 1.98.533 3.803.72 5.467.19 1.665.294 2.988.317 3.973 0 .118-.023.334-.07.65-.047.316-.094.663-.14 1.037l-.142 1.125c-.044.372-.08.665-.102.876zm-56.812-7.98c1.453 0 2.8.065 4.043.193 1.24.13 2.413.316 3.515.562 1.102.245 2.145.544 3.13.895s1.956.75 2.917 1.195c.21.094.44.21.686.352s.492.276.738.404c.246.13.48.24.703.334.222.094.415.14.58.14.116 0 .21-.046.28-.14.07-.093.105-.27.105-.527V41.1c0-.55-.006-1.247-.018-2.09-.012-.845-.018-1.817-.018-2.92v-3.55c0-1.828.004-3.78.017-5.854l.035-6.117c.012-2.005.035-3.91.07-5.714.035-1.805.088-3.352.158-4.64-.07-.845-.422-1.57-1.055-2.18-.633-.61-1.324-1.173-2.074-1.69-1.288-1.054-2.7-1.85-4.235-2.39-1.535-.54-3.1-.81-4.693-.81-1.336 0-2.637.12-3.902.353-1.266.233-2.555.503-3.867.808-.656.164-1.318.322-1.986.475-.668.153-1.33.334-1.986.545-.655.21-1.294.452-1.915.72-.62.27-1.2.605-1.74 1.003-.305.212-.545.44-.72.687s-.317.504-.423.773c-.105.27-.188.557-.246.86-.06.306-.123.634-.193.985-.305 1.71-.545 3.428-.72 5.15s-.382 3.44-.616 5.15c-.375 2.555-.79 5.098-1.248 7.63s-.886 5.074-1.284 7.628c-.118.773-.252 1.564-.404 2.373-.153.81-.23 1.577-.23 2.303 0 .21.054.42.16.632s.25.316.438.316c.07 0 .193-.03.37-.088.175-.058.368-.128.58-.21.21-.083.433-.165.667-.247.234-.082.445-.158.633-.23 2.273-.68 4.535-1.182 6.785-1.51 2.25-.325 4.57-.49 6.96-.49zm10.722-7.63c.515.235.773.6.773 1.09 0 .33-.145.65-.438.968-.293.316-.64.475-1.037.475-.118 0-.217-.012-.3-.035-.082-.023-.18-.058-.298-.105-1.454-.585-3.018-1.095-4.693-1.53-1.676-.433-3.322-.65-4.94-.65-.82 0-1.61.048-2.372.142-.762.093-1.506.222-2.232.386-.727.164-1.454.357-2.18.58-.727.223-1.477.452-2.25.686-.094.023-.223.035-.387.035-.33 0-.586-.117-.773-.352-.188-.234-.28-.515-.28-.844 0-.187.052-.38.157-.58.105-.198.287-.345.545-.438 1.758-.61 3.533-1.09 5.326-1.44s3.604-.528 5.432-.528c1.71 0 3.398.17 5.062.51 1.664.336 3.292.88 4.886 1.63zm.774-6.714c.234.234.352.55.352.95 0 .328-.083.62-.246.878-.164.258-.41.387-.738.387-.258 0-.545-.07-.86-.21s-.605-.27-.862-.388c-.33-.164-.663-.28-1.002-.352-.34-.07-.698-.164-1.072-.28-1.055-.305-2.11-.534-3.164-.687-1.055-.152-2.145-.23-3.27-.23-1.688 0-3.287.112-4.8.335-1.51.223-3.052.568-4.622 1.037-.047.023-.153.035-.316.035-.33 0-.61-.128-.844-.387-.234-.258-.352-.54-.352-.844 0-.375.176-.656.527-.844 1.453-.75 3.023-1.295 4.71-1.635 1.69-.34 3.4-.51 5.134-.51 1.547 0 3.082.118 4.605.352 1.523.234 2.965.61 4.324 1.125.398.14.81.293 1.23.457.422.163.796.386 1.125.667l.142.143zm.14-7.277c.258.094.434.24.527.44.092.198.14.403.14.614 0 .352-.123.698-.37 1.037-.245.34-.567.51-.966.51-.047 0-.105-.012-.176-.035-.07-.024-.14-.048-.21-.07-1.76-.657-3.593-1.214-5.503-1.67-1.91-.458-3.827-.687-5.748-.687-1.172 0-2.326.105-3.463.316-1.137.21-2.232.55-3.287 1.02-.118.046-.21.075-.28.087-.07.012-.154.018-.247.018-.33 0-.62-.117-.88-.352-.257-.234-.386-.515-.386-.844 0-.353.21-.657.633-.915 1.36-.703 2.777-1.207 4.254-1.512 1.478-.304 2.977-.457 4.5-.457 1.993 0 3.968.23 5.925.686 1.957.457 3.803 1.06 5.537 1.81zm.21-7.137c.26.118.452.287.58.51.13.223.194.44.194.65 0 .4-.158.762-.475 1.09-.315.33-.697.492-1.142.492-.234 0-.457-.047-.668-.14-1.313-.634-2.73-1.114-4.254-1.442-1.524-.328-3.07-.492-4.64-.492-1.36 0-2.685.123-3.974.37-1.29.245-2.508.638-3.656 1.177-.164.095-.352.142-.562.142-.4 0-.738-.146-1.02-.44-.28-.292-.422-.626-.422-1 0-.4.223-.716.668-.95 1.43-.68 2.947-1.19 4.553-1.53 1.605-.338 3.252-.51 4.94-.51 1.757 0 3.474.177 5.15.528 1.677.35 3.254.866 4.73 1.546zm41.556 31.36c.14-.212.21-.458.21-.74 0-.21-.03-.426-.087-.65-.058-.222-.087-.415-.087-.58-.375-3.14-.86-6.262-1.46-9.368-.597-3.105-1.106-6.228-1.528-9.37-.234-1.71-.452-3.427-.65-5.15-.2-1.722-.428-3.438-.686-5.15-.12-.702-.265-1.317-.44-1.845s-.557-1.014-1.143-1.46c-1.102-.795-2.31-1.37-3.62-1.722-1.314-.35-2.626-.69-3.94-1.02-1.312-.303-2.613-.573-3.9-.808-1.29-.234-2.603-.352-3.94-.352-1.593 0-3.158.27-4.692.81-1.535.54-2.948 1.335-4.236 2.39-.376.258-.745.522-1.108.79-.364.27-.69.563-.984.88-.293.316-.533.656-.72 1.02-.19.364-.294.756-.317 1.178.07 1.336.124 2.936.16 4.8s.057 3.826.07 5.888c.01 2.062.022 4.154.034 6.275.012 2.123.018 4.11.018 5.96v3.34c0 1.032-.006 1.946-.018 2.742-.012.797-.018 1.454-.018 1.97v.983c0 .305.03.492.088.562.058.07.158.105.3.105s.298-.035.474-.105.322-.14.44-.21c2.483-1.36 4.98-2.327 7.487-2.9 2.508-.575 5.168-.862 7.98-.862 2.32 0 4.623.164 6.908.492 2.285.33 4.54.832 6.768 1.512.165.07.364.145.6.228.233.083.46.164.685.246.223.083.422.153.598.21.176.06.3.09.37.09.14-.003.267-.06.385-.18zm-26.72-28.76c-.21.095-.433.142-.667.142-.468 0-.855-.164-1.16-.492-.304-.328-.456-.69-.456-1.09 0-.352.193-.68.58-.984.387-.304.884-.58 1.494-.826s1.3-.457 2.074-.633 1.56-.322 2.355-.44c.796-.116 1.56-.204 2.285-.263.726-.058 1.348-.088 1.863-.088 1.688 0 3.334.17 4.94.51 1.604.34 3.122.85 4.552 1.53.445.233.668.56.668.983 0 .352-.135.674-.404.967-.27.293-.603.44-1 .44-.212 0-.4-.048-.563-.142-1.172-.54-2.403-.932-3.69-1.178-1.29-.246-2.615-.37-3.974-.37-1.57 0-3.117.165-4.64.493-1.524.33-2.94.81-4.254 1.442zm-.245 7.033c-.07.022-.14.046-.21.07-.07.022-.142.034-.212.034-.374 0-.685-.17-.93-.51-.247-.34-.37-.686-.37-1.037 0-.21.047-.416.14-.615.094-.2.27-.346.528-.44 1.734-.75 3.58-1.353 5.537-1.81 1.957-.457 3.932-.686 5.924-.686 1.546 0 3.063.153 4.552.457 1.488.305 2.9.81 4.236 1.512.398.258.598.562.598.914 0 .28-.13.55-.387.808-.26.258-.563.387-.915.387-.07 0-.14-.005-.21-.018-.07-.012-.165-.04-.282-.088-1.078-.47-2.18-.81-3.305-1.02s-2.273-.317-3.445-.317c-1.922 0-3.838.23-5.748.686-1.91.456-3.744 1.013-5.502 1.67zm-.246 6.995c-.33 0-.58-.123-.756-.37s-.263-.532-.263-.86c0-.398.128-.726.387-.984l.105-.14c.327-.258.702-.475 1.124-.65s.832-.334 1.23-.475c1.336-.515 2.77-.89 4.307-1.125 1.536-.234 3.077-.352 4.624-.352 1.734 0 3.445.17 5.133.51 1.688.34 3.257.885 4.71 1.635.353.188.528.47.528.844 0 .305-.118.586-.352.844-.234.26-.527.388-.88.388-.14 0-.233-.012-.28-.035-1.5-.422-2.97-.756-4.412-1.002s-2.947-.368-4.517-.368c-1.195 0-2.368.07-3.516.21-1.148.142-2.285.376-3.41.704-.375.118-.72.21-1.037.28s-.663.19-1.037.353c-.258.117-.54.245-.844.386-.304.138-.585.21-.843.21zM74.18 30.96c.258.093.44.24.545.438.105.2.158.404.158.615 0 .305-.094.575-.28.81-.19.233-.446.35-.774.35-.165 0-.294-.01-.388-.034-.773-.235-1.53-.458-2.268-.67s-1.47-.397-2.197-.56c-.727-.165-1.465-.3-2.215-.405-.75-.105-1.535-.158-2.355-.158-1.617 0-3.258.217-4.922.65-1.665.434-3.234.944-4.71 1.53-.12.046-.218.082-.3.104-.083.024-.182.036-.3.036-.398 0-.737-.158-1.02-.475s-.42-.637-.42-.966c0-.492.245-.855.737-1.09 1.594-.75 3.222-1.295 4.887-1.635 1.663-.34 3.34-.51 5.026-.51 1.828 0 3.644.175 5.45.526 1.805.353 3.586.834 5.344 1.443zM149.03 26.746L122.75 53.39 96.393 26.745h14.762V-8.897h23.33v35.643h14.545z"/>
</svg>
